<?xml version="1.0" standalone="no"?>
<!DOCTYPE svg PUBLIC "-//W3C//DTD SVG 20010904//EN"
 "http://www.w3.org/TR/2001/REC-SVG-20010904/DTD/svg10.dtd">
<svg version="1.0" xmlns="http://www.w3.org/2000/svg"
 width="512.000000pt" height="512.000000pt" viewBox="0 0 512.000000 512.000000"
 preserveAspectRatio="xMidYMid meet">
<metadata>
Created by potrace 1.11, written by Peter Selinger 2001-2013
</metadata>
<g transform="translate(0.000000,512.000000) scale(0.100000,-0.100000)"
fill="#000000" stroke="none">
<path d="M1993 4842 l-553 -277 0 -483 0 -482 -160 80 -160 80 -560 -280 -560
-280 0 -1318 0 -1317 558 -283 557 -284 562 284 563 283 0 177 0 177 155 -80
c85 -44 161 -79 169 -77 8 2 263 129 565 283 l551 280 0 178 0 177 155 -81
c85 -44 161 -79 168 -77 8 2 262 129 566 283 l551 280 0 840 0 840 -560 280
-560 280 -155 -78 c-85 -42 -157 -77 -160 -77 -3 0 -5 89 -5 198 l0 197 -555
278 c-305 152 -561 277 -568 276 -6 0 -261 -125 -564 -277z"/>
</g>
</svg>
